Coordinates
version=1
nRows=18
nColumns=38
inDegrees=yes

Units are S.I. units (second, meters, Newtons, ...)
Angles are in degrees.

endheader
time	pelvis_tilt	pelvis_list	pelvis_rotation	pelvis_tx	pelvis_ty	pelvis_tz	hip_flexion_r	hip_adduction_r	hip_rotation_r	knee_angle_r	ankle_angle_r	subtalar_angle_r	mtp_angle_r	hip_flexion_l	hip_adduction_l	hip_rotation_l	knee_angle_l	ankle_angle_l	subtalar_angle_l	mtp_angle_l	lumbar_extension	lumbar_bending	lumbar_rotation	arm_flex_r	arm_add_r	arm_rot_r	elbow_flex_r	pro_sup_r	wrist_flex_r	wrist_dev_r	arm_flex_l	arm_add_l	arm_rot_l	elbow_flex_l	pro_sup_l	wrist_flex_l	wrist_dev_l
      0.32000000	     -2.70167184	      2.78473132	     -1.05125229	      0.66284202	      0.94323805	     -0.01921678	     22.75695531	     -5.29907381	     -0.50596313	    -70.78130167	     -5.00991056	      0.00000000	      0.00000000	     18.33792693	      2.91464931	    -12.04865958	    -21.85241716	      7.69654966	      0.00000000	      0.00000000	     -2.64729536	     -4.92330995	      2.45347273	    -10.31570049	     -9.09135054	     -0.06784394	     29.91319119	    112.04946321	      0.00000000	      0.00000000	      8.47694159	    -11.69234604	     -4.30193195	     28.76348765	    112.95999268	      0.00000000	      0.00000000
      0.32500000	     -2.64667313	      2.59574322	     -0.73110863	      0.66713594	      0.94410241	     -0.01994006	     23.26216635	     -5.16949316	     -0.84166388	    -70.99000711	     -4.29792354	      0.00000000	      0.00000000	     17.75794907	      2.90887390	    -11.55459958	    -21.42237720	      7.81173045	      0.00000000	      0.00000000	     -2.76676517	     -4.71634908	      2.05691509	    -10.63229659	     -9.03988308	     -0.75766789	     30.17887041	    111.99719886	      0.00000000	      0.00000000	      8.76306247	    -11.72720157	     -4.46962894	     28.96448205	    112.88003748	      0.00000000	      0.00000000
      0.33000000	     -2.61310122	      2.45988860	     -0.59330934	      0.67152823	      0.94493728	     -0.02058206	     23.79825164	     -4.99636321	     -0.88404147	    -71.11576603	     -4.03935211	      0.00000000	      0.00000000	     17.24635933	      2.87599856	    -11.42541792	    -21.11343332	      7.96439566	      0.00000000	      0.00000000	     -2.78517034	     -4.56853547	      1.89014834	    -10.92633258	     -9.10595799	     -1.02027103	     30.16139731	    111.98364942	      0.00000000	      0.00000000	      9.10226628	    -11.73050881	     -4.55554414	     29.03359523	    112.84796248	      0.00000000	      0.00000000
      0.33500000	     -2.56979659	      2.38756337	     -0.43453049	      0.67564684	      0.94564926	     -0.02115424	     24.37335060	     -4.86907252	     -0.94561036	    -71.21786984	     -4.00120769	      0.00000000	      0.00000000	     16.81007947	      2.84875461	    -11.56138934	    -20.91626400	      8.03976252	      0.00000000	      0.00000000	     -2.86751045	     -4.49976164	      1.60637116	    -11.14321602	     -9.19412644	     -1.08070092	     30.10004504	    111.97691018	      0.00000000	      0.00000000	      9.37828400	    -11.79353165	     -4.56837332	     29.11320500	    112.84402006	      0.00000000	      0.00000000
      0.34000000	     -2.55637777	      2.23102363	     -0.26284986	      0.68002874	      0.94648638	     -0.02182404	     24.89704671	     -4.71420518	     -1.13263498	    -71.18059529	     -3.65725903	      0.00000000	      0.00000000	     16.21415386	      2.81462362	    -11.40034086	    -20.38772624	      8.11177101	      0.00000000	      0.00000000	     -2.88112163	     -4.32864015	      1.36091110	    -11.40568516	     -9.24341162	     -1.29359821	     30.15789500	    111.95477535	      0.00000000	      0.00000000	      9.63332314	    -11.81589418	     -4.64268594	     29.23148467	    112.83107500	      0.00000000	      0.00000000
      0.34500000	     -2.45021043	      2.08417124	      0.02239887	      0.68426380	      0.94730495	     -0.02245022	     25.31604885	     -4.59116923	     -1.43433138	    -71.10329649	     -3.21228345	      0.00000000	      0.00000000	     15.60280466	      2.79201451	    -11.09052008	    -20.00406371	      8.12531203	      0.00000000	      0.00000000	     -3.05954474	     -4.16794448	      1.00859713	    -11.69320076	     -9.21000376	     -1.91650206	     30.44219503	    111.89361704	      0.00000000	      0.00000000	      9.92859694	    -11.84042142	     -4.88802318	     29.42082343	    112.79990882	      0.00000000	      0.00000000
      0.35000000	     -2.44191893	      1.96610404	      0.14745373	      0.68859730	      0.94802112	     -0.02306018	     25.83368930	     -4.44231641	     -1.54055990	    -70.96742582	     -2.97441883	      0.00000000	      0.00000000	     15.05186806	      2.75531915	    -11.02525841	    -19.56729669	      8.22336800	      0.00000000	      0.00000000	     -3.06348446	     -4.03475047	      0.83586197	    -11.95295132	     -9.27666683	     -2.12307546	     30.44653917	    111.87902503	      0.00000000	      0.00000000	     10.18001369	    -11.85254507	     -4.96885419	     29.56557795	    112.79514941	      0.00000000	      0.00000000
      0.35500000	     -2.43031994	      1.91467511	      0.30603039	      0.69252904	      0.94859381	     -0.02366417	     26.36923062	     -4.33652714	     -1.56622229	    -70.77006877	     -2.90192514	      0.00000000	      0.00000000	     14.65549230	      2.74861744	    -11.12623578	    -19.36780990	      8.28503113	      0.00000000	      0.00000000	     -3.13094655	     -3.97466582	      0.58712328	    -12.12817748	     -9.37216814	     -2.17881484	     30.40960040	    111.87274471	      0.00000000	      0.00000000	     10.49082741	    -11.92405578	     -4.98543620	     29.68070610	    112.79321871	      0.00000000	      0.00000000
      0.36000000	     -2.44795276	      1.72756173	      0.52112981	      0.69698335	      0.94929533	     -0.02429604	     26.82108351	     -4.16538794	     -1.77510986	    -70.47563631	     -2.39826517	      0.00000000	      0.00000000	     14.06000601	      2.68024614	    -10.88581342	    -18.77766900	      8.33351834	      0.00000000	      0.00000000	     -3.08356331	     -3.76970174	      0.36593597	    -12.44804647	     -9.41398270	     -2.39946315	     30.53110465	    111.85110953	      0.00000000	      0.00000000	     10.70037830	    -11.91510300	     -5.07916194	     29.87844202	    112.78926307	      0.00000000	      0.00000000
      0.36500000	     -2.36580638	      1.56197240	      0.81291779	      0.70104493	      0.94995244	     -0.02486498	     27.19011288	     -4.01914403	     -2.05919622	    -70.15465331	     -1.86468351	      0.00000000	      0.00000000	     13.50903892	      2.60563498	    -10.63550968	    -18.42284767	      8.32069896	      0.00000000	      0.00000000	     -3.24394611	     -3.59203988	      0.04402404	    -12.72521218	     -9.39551248	     -2.91416261	     30.87214527	    111.80059555	      0.00000000	      0.00000000	     10.98180909	    -11.93843208	     -5.31963499	     30.19899744	    112.76895721	      0.00000000	      0.00000000
      0.37000000	     -2.37847781	      1.51751996	      0.95107785	      0.70503166	      0.95043631	     -0.02540987	     27.70160839	     -3.94396075	     -2.11851905	    -69.80226244	     -1.75641469	      0.00000000	      0.00000000	     13.11380558	      2.59888726	    -10.76001125	    -18.17660242	      8.40831926	      0.00000000	      0.00000000	     -3.27433328	     -3.54864455	     -0.15481980	    -12.89219913	     -9.48474471	     -2.97352356	     30.84005141	    111.79455610	      0.00000000	      0.00000000	     11.28893899	    -11.99426571	     -5.33871648	     30.32895032	    112.76755651	      0.00000000	      0.00000000
      0.37500000	     -2.40950827	      1.39015443	      1.09366215	      0.70959129	      0.95098258	     -0.02603028	     28.12666180	     -3.82412666	     -2.23592442	    -69.35395449	     -1.28066230	      0.00000000	      0.00000000	     12.51721697	      2.57540153	    -10.47732841	    -17.60289218	      8.44629168	      0.00000000	      0.00000000	     -3.18702340	     -3.40140307	     -0.25959136	    -13.23422814	     -9.53038015	     -3.17759113	     30.92214536	    111.77519373	      0.00000000	      0.00000000	     11.46882770	    -11.96063919	     -5.42477503	     30.54954253	    112.76467562	      0.00000000	      0.00000000
      0.38000000	     -2.41797450	      1.34979796	      1.24876071	      0.71347541	      0.95137912	     -0.02655334	     28.60952579	     -3.75873698	     -2.31938386	    -68.89986527	     -1.11002821	      0.00000000	      0.00000000	     12.14032549	      2.56856812	    -10.59330696	    -17.34434195	      8.51592502	      0.00000000	      0.00000000	     -3.22143663	     -3.36814154	     -0.47273928	    -13.37282065	     -9.58719192	     -3.25177338	     30.94519393	    111.76722471	      0.00000000	      0.00000000	     11.77282185	    -12.00771348	     -5.45117295	     30.69998051	    112.76307458	      0.00000000	      0.00000000
      0.38500000	     -2.36215122	      1.17352023	      1.50505541	      0.71786895	      0.95196714	     -0.02705561	     28.89782299	     -3.57419406	     -2.60678074	    -68.23944629	     -0.55572292	      0.00000000	      0.00000000	     11.50498435	      2.49743919	    -10.19491123	    -16.77586469	      8.47166861	      0.00000000	      0.00000000	     -3.31302149	     -3.16778681	     -0.68544528	    -13.75491111	     -9.56967761	     -3.75310471	     31.34959083	    111.70913034	      0.00000000	      0.00000000	     11.94227250	    -11.99387339	     -5.65597163	     31.12385431	    112.75791129	      0.00000000	      0.00000000
      0.39000000	     -2.37805093	      1.10583589	      1.66787433	      0.72213933	      0.95235281	     -0.02764034	     29.27888306	     -3.51209461	     -2.73646949	    -67.61555741	     -0.35097162	      0.00000000	      0.00000000	     11.03831210	      2.49084169	    -10.15175881	    -16.38268764	      8.53073078	      0.00000000	      0.00000000	     -3.32549394	     -3.08788635	     -0.80605941	    -14.03502447	     -9.58496988	     -4.03782808	     31.49272459	    111.67782810	      0.00000000	      0.00000000	     12.16660444	    -11.96624076	     -5.72725353	     31.37244854	    112.76167531	      0.00000000	      0.00000000
      0.39500000	     -2.33177277	      1.01238521	      1.87976622	      0.72628952	      0.95271185	     -0.02813338	     29.58638350	     -3.42720850	     -2.93626473	    -66.94368906	      0.01290494	      0.00000000	      0.00000000	     10.53527504	      2.44736660	    -10.02908215	    -16.04187885	      8.53677139	      0.00000000	      0.00000000	     -3.40117666	     -2.98589298	     -1.01160286	    -14.29491005	     -9.54704884	     -4.63895635	     31.82328016	    111.61893831	      0.00000000	      0.00000000	     12.38467601	    -11.97840909	     -5.88286956	     31.74998569	    112.76610274	      0.00000000	      0.00000000
      0.40000000	     -2.38834991	      0.94513385	      2.00449048	      0.73047042	      0.95299330	     -0.02860398	     30.00679504	     -3.32260310	     -3.00502387	    -66.23489325	      0.38577152	      0.00000000	      0.00000000	     10.09465185	      2.43750178	     -9.85991786	    -15.58482319	      8.62508173	      0.00000000	      0.00000000	     -3.35180090	     -2.91492430	     -1.09926197	    -14.51944883	     -9.57898258	     -4.82346440	     31.86601116	    111.60423795	      0.00000000	      0.00000000	     12.61926697	    -11.96702020	     -5.90475690	     31.96070573	    112.76901785	      0.00000000	      0.00000000
      0.40500000	     -2.43507381	      0.90619057	      2.17653713	      0.73472457	      0.95316016	     -0.02898530	     30.37652885	     -3.27728263	     -3.13359632	    -65.43257852	      0.63794820	      0.00000000	      0.00000000	      9.70487202	      2.42329565	     -9.88114055	    -15.27906788	      8.67969111	      0.00000000	      0.00000000	     -3.30390696	     -2.89767367	     -1.22264378	    -14.74736397	     -9.57436179	     -4.94200336	     31.90895303	    111.59209895	      0.00000000	      0.00000000	     12.86305398	    -11.98496114	     -5.92433842	     32.16634803	    112.76791093	      0.00000000	      0.00000000
